<svg width="255" height="226" viewBox="0 0 255 226" fill="none" xmlns="http://www.w3.org/2000/svg">
<path d="M238.015 191.395L254.091 226L216.259 225.977C208.675 225.754 202.737 223.887 198.443 220.375C194.066 216.623 190.107 210.58 186.564 202.245L176.464 178.488H217.956C226.869 178.488 234.545 183.781 238.015 191.395Z" fill="url(#paint0_linear_2274_694)"/>
<path d="M217.956 178.488H92.3622L105.075 148.619C108.265 140.379 116.446 134.413 125.812 134.413L197.484 134.421C206.413 134.421 214.101 139.731 217.562 147.366L238.016 191.395C234.546 183.781 226.87 178.488 217.956 178.488Z" fill="url(#paint1_linear_2274_694)"/>
<path fill-rule="evenodd" clip-rule="evenodd" d="M126.293 62.8301L139.985 30.7928C142.323 26.9356 146.515 24.4346 151.356 24.4346C156.526 24.4346 160.936 27.1087 163.151 31.4079L159.428 23.4443C155.469 15.3169 150.78 9.37745 145.362 5.62641C140.152 1.87566 134.004 0 126.919 0C119.834 0 113.478 1.87566 107.851 5.62641C102.433 9.37745 97.8485 15.3169 94.0969 23.4443L0 226C12.6106 226 25.2211 226 37.8317 226C45.9585 226 52.0025 224.124 55.9618 220.375C59.9214 216.623 63.7764 210.58 67.5272 202.245L77.6285 178.487L126.293 62.8301Z" fill="url(#paint2_linear_2274_694)"/>
<path d="M165.929 120.246H204.684L163.149 31.4034C160.933 27.1069 156.524 24.4347 151.356 24.4347C146.515 24.4347 142.323 26.9357 139.985 30.793L126.293 62.8302L144.546 105.705C147.911 114.221 156.216 120.246 165.929 120.246Z" fill="url(#paint3_linear_2274_694)"/>
<defs>
<linearGradient id="paint0_linear_2274_694" x1="206.389" y1="178.079" x2="225.11" y2="227.394" gradientUnits="userSpaceOnUse">
<stop stop-color="#275347"/>
<stop offset="1" stop-color="#377664"/>
</linearGradient>
<linearGradient id="paint1_linear_2274_694" x1="238.353" y1="162.554" x2="92.2364" y2="162.554" gradientUnits="userSpaceOnUse">
<stop stop-color="#377664"/>
<stop offset="1" stop-color="#50AA90"/>
</linearGradient>
<linearGradient id="paint2_linear_2274_694" x1="133.331" y1="2.07044e-06" x2="28.7666" y2="225.567" gradientUnits="userSpaceOnUse">
<stop stop-color="#377664"/>
<stop offset="1" stop-color="#50AA90"/>
</linearGradient>
<linearGradient id="paint3_linear_2274_694" x1="139.724" y1="24.6572" x2="175.34" y2="120.546" gradientUnits="userSpaceOnUse">
<stop stop-color="#275347"/>
<stop offset="1" stop-color="#377664"/>
</linearGradient>
</defs>
</svg>
